<svg width="24" height="24" viewBox="0 0 24 24" fill="none" xmlns="http://www.w3.org/2000/svg">
<g id="fi:wifi-off" clip-path="url(#clip0_8_17)">
<path id="Vector" d="M1 1L23 23" stroke="white" stroke-width="2" stroke-linecap="round" stroke-linejoin="round"/>
<path id="Vector_2" d="M12 20H12.01" stroke="white" stroke-width="2" stroke-linecap="round" stroke-linejoin="round"/>
<path id="Vector_3" d="M8.53003 16.11C9.54523 15.3888 10.7597 15.0013 12.005 15.0013C13.2504 15.0013 14.4648 15.3888 15.48 16.11" stroke="white" stroke-width="2" stroke-linecap="round" stroke-linejoin="round"/>
<path id="Vector_4" d="M16.72 11.06C17.5391 11.4597 18.305 11.9603 19 12.55" stroke="white" stroke-width="2" stroke-linecap="round" stroke-linejoin="round"/>
<path id="Vector_5" d="M5 12.55C6.48208 11.3108 8.26587 10.4862 10.17 10.16" stroke="white" stroke-width="2" stroke-linecap="round" stroke-linejoin="round"/>
<path id="Vector_6" d="M1.42004 9C2.80721 7.77385 4.39774 6.79922 6.12004 6.12" stroke="white" stroke-width="2" stroke-linecap="round" stroke-linejoin="round"/>
<path id="Vector_7" d="M10.71 5.04998C12.8524 4.87735 15.0076 5.13815 17.047 5.8168C19.0864 6.49546 20.9682 7.57806 22.58 8.99998" stroke="white" stroke-width="2" stroke-linecap="round" stroke-linejoin="round"/>
</g>
<defs>
<clipPath id="clip0_8_17">
<rect width="24" height="24" fill="white"/>
</clipPath>
</defs>
</svg>
